Chronicle 2012 V2 TS XViD DTRG

Format                                   : AVI
Format/Info                              : Audio Video Interleave
File size                                : 842 MiB
Duration                                 : 1h 15mn
Overall bit rate                         : 1 554 Kbps
Writing library                          : VirtualDub build 32842/release

Video
ID                                       : 0
Format                                   : MPEG-4 Visual
Format profile                           : Advanced Simple@L5
Format settings, BVOP                    : 2
Format settings, QPel                    : No
Format settings, GMC                     : No warppoints
Format settings, Matrix                  : Default (H.263)
Muxing mode                              : Packed bitstream
Codec ID                                 : XVID
Codec ID/Hint                            : XviD
Duration                                 : 1h 15mn
Bit rate                                 : 1 417 Kbps
Width                                    : 624 pixels
Height                                   : 262 pixels
Display aspect ratio                     : 2.40:1
Frame rate                               : 25.000 fps
Color space                              : YUV
Chroma subsampling                       : 4:2:0
Bit depth                                : 8 bits
Scan type                                : Progressive
Compression mode                         : Lossy
Bits/(Pixel*Frame)                       : 0.347
Stream size                              : 768 MiB (91%)
Writing library                          : XviD 64

Audio
ID                                       : 1
Format                                   : MPEG Audio
Format version                           : Version 1
Format profile                           : Layer 3
Mode                                     : Joint stereo
Mode extension                           : MS Stereo
Codec ID                                 : 55
Codec ID/Hint                            : MP3
Duration                                 : 1h 15mn
Bit rate mode                            : Constant
Bit rate                                 : 128 Kbps
Channel(s)                               : 2 channels
Sampling rate                            : 44.1 KHz
Compression mode                         : Lossy
Delay relative to video                  : 309ms
Stream size                              : 69.4 MiB (8%)
Alignment                                : Split accross interleaves
Interleave, duration                     : 40 ms (1.00 video frame)
Interleave, preload duration             : 500 ms

 
http://www.imdb.com/title/tt1706593/


Ratings: 7.5/10 from 17,022 users   Metascore: 69/100 
Reviews: 189 user | 182 critic | 31 from Metacritic.com

Three high school friends gain superpowers after making an incredible discovery. Soon, though, they find their lives spinning out of control and their bond tested as they embrace their darker sides.
Director:
Josh Trank
Writers:
Max Landis (screenplay), Max Landis (story), and 1 more credit »
Stars:
Dane DeHaan, Alex Russell and Michael B. Jordan 


Source Used:

Video ...........NoZgt........thanks

Audio........ Mistere.................thanks

Quiet so had a go at chronicle again using the 2nd source that showed

HQ Smoother ,then sharpened,changed the sauration and hue levels

Sample is included so check it out


Poster:

 
http://i.imgur.com/63Qo9.jpg


Screenshots:

 
http://i.imgur.com/kHeCM.jpg


ENJOY!